# xmcd
#
# Track frame offsets: 
#        150
#        10875
#        21430
#        30880
#        40217
#        49349
#        59112
#        71020
#        81332
#        94082
#        102988
#        113035
#        122335
#        130872
#        141729
#        151516
#        160253
#        169973
#        178898
#        187523
#
# Disc length: 2611 seconds
#
# Revision: 0
# Processed by: cddbd v1.5.2PL0 Copyright (c) Steve Scherf et al.
# Submitted via: ExactAudioCopy v1.0b3
#
DISCID=0e0a3114
DTITLE=Various Artist - Collectors Choice Vol 6 - "Boppin' Hit Parade"
DYEAR=2010
DGENRE=Hillbilly
TTITLE0=Barker, Delbert - Kaw-Liga
TTITLE1=Barker, Delbert - Weary Blues
TTITLE2=Sandy, Bob and The Rhythm Rangers - Go, Boy, Go
TTITLE3=Howard, Rusty and The Rhythm Rangers - Hep Cat Baby
TTITLE4=Barker, Delbert - Hearts Of Stone
TTITLE5=Raimey, Marlon with The Country All-Stars - Live Fast - Love H
TTITLE5=ard - Die Young
TTITLE6=Sandy, Bob and The Rhythm Rangers - I Forgot To Remember To Forg
TTITLE6=et
TTITLE7=Sandy, Bob and The Rhythm Rangers - Cry, Cry, Cry
TTITLE8=Sandy, Bob and The Rhythm Rangers - Folsom Prison Blues
TTITLE9=Smith, Hank and The Nashville Playboys (Leon Payne) - Blue Suede
TTITLE9=Shoes
TTITLE10=Small. Arkie - There You Go
TTITLE11=Chain, Charlie with The Gateway All-Stars - Honky Tonk Man
TTITLE12=Williams, Jack and The Nashville Playboys (Leon Payne) - I'm A 
TTITLE12=One Woman Man
TTITLE13=Runyon, Al with The Gateway All-Stars - Uncle Pen
TTITLE14=Unknown (Leon Payne or Eddie Noack) - 20 Feet Of Muddy Water
TTITLE15=Howard, Rusty and The Rhythm Rangers - My Baby Left Me
TTITLE16=Uncredited (Country Johnny Mathis) - Geisha Girl
TTITLE17=Uncredited (Eddie Noack) - Invitation To The Bues
TTITLE18=Uncredited (Eddie Noack) - Gonna Give Myself A Party
TTITLE19=Uncredited (Eddie Noack) - Alone With You
EXTD=
EXTT0=
EXTT1=
EXTT2=
EXTT3=
EXTT4=
EXTT5=
EXTT6=
EXTT7=
EXTT8=
EXTT9=
EXTT10=
EXTT11=
EXTT12=
EXTT13=
EXTT14=
EXTT15=
EXTT16=
EXTT17=
EXTT18=
EXTT19=
PLAYORDER=
